<?xml version="1.0" encoding="utf-8"?>
<!-- Generator: Adobe Illustrator 27.5.0, SVG Export Plug-In . SVG Version: 6.00 Build 0)  -->
<svg version="1.1" xmlns="http://www.w3.org/2000/svg" xmlns:xlink="http://www.w3.org/1999/xlink" x="0px" y="0px"
	 viewBox="0 0 500 500" style="enable-background:new 0 0 500 500;" xml:space="preserve">
<g id="Background_complete">
	<g>
		<path style="fill:#E6E6E6;" d="M315.45,153.983c-1.756,3.453-2.784,7.146-3.137,10.877l-5.747,1.192l1.249,11.247l5.869-0.098
			c1.161,3.561,2.976,6.939,5.447,9.923l-3.212,4.892l8.837,7.07l4.068-4.207c3.454,1.756,7.147,2.785,10.877,3.136l1.192,5.747
			l11.247-1.25l-0.098-5.868c3.562-1.163,6.939-2.977,9.924-5.448l4.893,3.212l7.07-8.837l-4.207-4.068
			c1.755-3.454,2.784-7.147,3.136-10.877l5.746-1.192l-1.249-11.247l-5.868,0.098c-1.162-3.561-2.977-6.939-5.448-9.923l3.212-4.892
			l-8.837-7.07l-4.068,4.207c-3.454-1.756-7.147-2.785-10.877-3.137l-1.193-5.747l-11.247,1.25l0.098,5.868
			c-3.562,1.162-6.939,2.976-9.923,5.447l-4.893-3.212l-7.07,8.837L315.45,153.983z M352.039,155.675
			c6.253,5.003,7.267,14.128,2.264,20.382c-5.003,6.254-14.129,7.267-20.382,2.264c-6.254-5.003-7.267-14.128-2.264-20.382
			C336.661,151.686,345.785,150.671,352.039,155.675z"/>
	</g>
	<g>
		<path style="fill:#E6E6E6;" d="M249.162,362.492c-1.756,3.453-2.784,7.146-3.137,10.877l-5.747,1.192l1.249,11.247l5.869-0.098
			c1.161,3.561,2.976,6.939,5.447,9.923l-3.212,4.892l8.836,7.07l4.068-4.207c3.454,1.755,7.147,2.784,10.877,3.136l1.192,5.747
			l11.247-1.25l-0.098-5.868c3.562-1.163,6.939-2.977,9.924-5.447l4.893,3.212l7.07-8.837l-4.207-4.069
			c1.755-3.454,2.784-7.147,3.136-10.877l5.746-1.192l-1.249-11.247l-5.868,0.098c-1.162-3.562-2.977-6.939-5.448-9.923l3.212-4.893
			l-8.837-7.07l-4.068,4.207c-3.454-1.756-7.147-2.785-10.877-3.137l-1.193-5.747l-11.247,1.25l0.098,5.868
			c-3.562,1.162-6.939,2.976-9.923,5.447l-4.893-3.212l-7.07,8.837L249.162,362.492z M285.751,364.184
			c6.253,5.003,7.267,14.128,2.264,20.382c-5.003,6.254-14.129,7.267-20.382,2.264c-6.254-5.003-7.267-14.128-2.264-20.382
			C270.372,360.195,279.497,359.181,285.751,364.184z"/>
	</g>
	<g>
		<path style="fill:#E6E6E6;" d="M62.04,230.23c-1.756,3.453-2.784,7.146-3.137,10.877l-5.747,1.192l1.249,11.247l5.869-0.098
			c1.161,3.561,2.976,6.939,5.447,9.923l-3.212,4.893l8.837,7.069l4.068-4.207c3.454,1.755,7.147,2.785,10.877,3.136l1.192,5.747
			l11.247-1.25l-0.098-5.868c3.562-1.163,6.939-2.977,9.924-5.448l4.893,3.212l7.07-8.837l-4.207-4.069
			c1.756-3.454,2.784-7.147,3.136-10.877l5.746-1.193l-1.249-11.247l-5.868,0.098c-1.162-3.562-2.977-6.939-5.448-9.923l3.212-4.893
			l-8.837-7.07l-4.068,4.207c-3.454-1.756-7.147-2.785-10.877-3.137l-1.193-5.747l-11.247,1.25l0.098,5.868
			c-3.562,1.162-6.939,2.976-9.923,5.447l-4.893-3.212l-7.07,8.837L62.04,230.23z M98.629,231.922
			c6.253,5.003,7.267,14.128,2.264,20.382c-5.003,6.254-14.129,7.267-20.382,2.264c-6.254-5.003-7.267-14.128-2.264-20.382
			C83.25,227.933,92.375,226.919,98.629,231.922z"/>
	</g>
	<g>
		<path style="fill:#F0F0F0;" d="M45.979,293.693c-1.058,2.08-1.677,4.304-1.889,6.551l-3.461,0.718l0.752,6.774l3.535-0.059
			c0.699,2.145,1.792,4.179,3.281,5.977l-1.934,2.947l5.322,4.258l2.45-2.534c2.08,1.057,4.305,1.677,6.551,1.889l0.718,3.462
			l6.774-0.753l-0.059-3.534c2.146-0.7,4.179-1.793,5.977-3.281l2.947,1.934l4.258-5.322l-2.534-2.45
			c1.057-2.08,1.677-4.304,1.889-6.551L84.016,303l-0.752-6.774l-3.535,0.059c-0.7-2.145-1.793-4.179-3.281-5.976l1.934-2.947
			l-5.322-4.258l-2.45,2.534c-2.08-1.058-4.305-1.678-6.551-1.889l-0.718-3.461l-6.774,0.753l0.059,3.534
			c-2.145,0.7-4.179,1.792-5.977,3.281l-2.947-1.934l-4.258,5.322L45.979,293.693z M68.016,294.712
			c3.766,3.013,4.377,8.509,1.364,12.276c-3.013,3.766-8.51,4.377-12.276,1.364c-3.766-3.013-4.377-8.509-1.364-12.276
			C58.754,292.31,64.249,291.699,68.016,294.712z"/>
	</g>
	<g>
		<path style="fill:#F0F0F0;" d="M378.182,125.107c-1.058,2.08-1.677,4.304-1.889,6.551l-3.461,0.718l0.752,6.774l3.535-0.059
			c0.699,2.145,1.792,4.179,3.281,5.977l-1.934,2.947l5.322,4.258l2.45-2.534c2.08,1.057,4.304,1.677,6.551,1.889l0.718,3.462
			l6.774-0.753l-0.059-3.534c2.146-0.7,4.18-1.793,5.977-3.281l2.947,1.934l4.258-5.322l-2.534-2.45
			c1.057-2.08,1.677-4.304,1.889-6.551l3.461-0.718l-0.752-6.774l-3.535,0.059c-0.7-2.145-1.793-4.179-3.281-5.976l1.935-2.947
			l-5.322-4.258l-2.45,2.534c-2.08-1.058-4.305-1.678-6.551-1.89l-0.718-3.461l-6.774,0.753l0.059,3.534
			c-2.145,0.7-4.179,1.792-5.976,3.281l-2.947-1.934l-4.258,5.322L378.182,125.107z M400.219,126.126
			c3.766,3.013,4.377,8.509,1.364,12.276c-3.014,3.766-8.51,4.377-12.276,1.364c-3.767-3.013-4.377-8.509-1.364-12.276
			C390.957,123.723,396.452,123.112,400.219,126.126z"/>
	</g>
	<g>
		<g>
			<g>
				<g>
					<g>
						<path style="fill:#E0E0E0;" d="M443.92,330.198H263.174c-3.232,0-5.862-2.63-5.862-5.862V61.062
							c0-3.232,2.63-5.862,5.862-5.862H443.92c3.232,0,5.862,2.629,5.862,5.862v263.273
							C449.783,327.568,447.153,330.198,443.92,330.198z M263.174,55.45c-3.095,0-5.612,2.518-5.612,5.612v263.273
							c0,3.095,2.518,5.612,5.612,5.612H443.92c3.095,0,5.612-2.518,5.612-5.612V61.062c0-3.094-2.518-5.612-5.612-5.612H263.174z"
							/>
					</g>
				</g>
				<g>
					<g>
						<path style="fill:#E0E0E0;" d="M235.493,330.198H54.746c-3.232,0-5.862-2.63-5.862-5.862V61.062
							c0-3.232,2.629-5.862,5.862-5.862h180.747c3.232,0,5.862,2.629,5.862,5.862v263.273
							C241.355,327.568,238.725,330.198,235.493,330.198z M54.746,55.45c-3.094,0-5.612,2.518-5.612,5.612v263.273
							c0,3.095,2.518,5.612,5.612,5.612h180.747c3.095,0,5.612-2.518,5.612-5.612V61.062c0-3.094-2.518-5.612-5.612-5.612H54.746z"
							/>
					</g>
				</g>
			</g>
			<g>
				<g>
					<rect x="0" y="391.267" style="fill:#E0E0E0;" width="500" height="0.25"/>
				</g>
			</g>
		</g>
		<rect x="51.672" y="405.531" style="fill:#E0E0E0;" width="16.06" height="0.25"/>
		<rect x="170.352" y="402.821" style="fill:#E0E0E0;" width="53.53" height="0.25"/>
		<rect x="68.732" y="414.821" style="fill:#E0E0E0;" width="36.25" height="0.25"/>
		<rect x="378.352" y="402.691" style="fill:#E0E0E0;" width="43.19" height="0.25"/>
		<rect x="430.452" y="402.691" style="fill:#E0E0E0;" width="6.33" height="0.25"/>
		<rect x="316.212" y="408.921" style="fill:#E0E0E0;" width="53.89" height="0.25"/>
	</g>
	<g>
		<path style="fill:#F0F0F0;" d="M135.035,95.474H69.308c-5.9,0-10.682-4.783-10.682-10.682V46.613
			c0-5.9,4.783-10.682,10.682-10.682h65.727c5.9,0,10.682,4.783,10.682,10.682v38.179C145.717,90.691,140.934,95.474,135.035,95.474
			z"/>
		<g>
			<g>
				<path style="fill:#E0E0E0;" d="M84.436,75.41c-1.497-5.553-6.325-12.337-3.022-18.136c1.35-2.37,4.446-4.027,6.991-2.394
					c3.312,2.125,1.192,6.185-0.972,8.238c-0.566,0.537,0.028,1.412,0.73,1.254c3.841-0.87,8.205,2.384,8.119,6.427
					c-0.086,4.049-4.484,7.148-8.325,6.16c0.15,0.367,0.299,0.735,0.448,1.102c2.386-3.254,6.32-4.73,9.759-6.57
					c2.617-1.4,5.48-3.097,7.315-5.486c0.661-0.861,1.219-1.929,1.014-3.048c-0.227-1.239-1.06-1.841-2.304-1.556
					c-2.394,0.548-2.304,3.693-2.06,5.577c0.367,2.826,1.183,5.74,3.523,7.566c2.528,1.973,5.491,1.991,8.006,0.098
					c1.906-1.435,4.277-3.906,4.06-6.507c-0.212-2.533-3.623-3.459-4.991-1.233c-1.729,2.813,1.914,6.267,4.051,7.556
					c3.055,1.842,7.129,0.616,8.59-2.689c0.387-0.875-0.905-1.639-1.295-0.757c-1.037,2.347-3.84,3.602-6.185,2.355
					c-1.635-0.869-4.242-2.99-4.042-5.098c0.103-1.085,1.556-1.619,2.192-0.618c0.493,0.777,0.019,1.873-0.376,2.581
					c-0.932,1.674-2.611,3.391-4.409,4.13c-2.462,1.012-5.295-0.937-6.416-3.065c-0.866-1.645-1.268-3.824-1.325-5.666
					c-0.022-0.715-0.052-1.754,0.42-2.359c0.201-0.257,0.428-0.416,0.766-0.434c0.298-0.016,0.278,0.126,0.198,0.023
					c0.147,0.188,0.15,0.473,0.135,0.696c-0.128,1.891-2.792,3.602-4.161,4.542c-4.541,3.118-10.387,4.602-13.761,9.203
					c-0.288,0.393,0.017,0.991,0.448,1.102c4.77,1.228,10.15-2.571,10.223-7.606c0.074-5.047-5.227-8.959-10.018-7.874
					c0.243,0.418,0.486,0.836,0.73,1.253c2.486-2.358,4.487-6.343,1.987-9.426c-2.063-2.544-5.783-2.522-8.26-0.627
					c-2.732,2.09-3.597,5.586-3.285,8.883c0.429,4.52,2.887,8.474,4.054,12.801C83.24,76.74,84.688,76.345,84.436,75.41
					L84.436,75.41z"/>
			</g>
		</g>
	</g>
	<g>
		<g>
			<g>
				<path style="fill:#E0E0E0;" d="M425.935,156.342c12.321-6.536,27.608-1.847,34.145,10.474
					c6.536,12.321,1.847,27.608-10.474,34.145c-9.512,5.046-20.775,3.379-28.432-3.302l-7.526,0.941l2.029-7.753
					c-0.068-0.123-0.148-0.235-0.215-0.36C408.925,178.165,413.615,162.878,425.935,156.342z"/>
			</g>
		</g>
		<g>
			<polygon style="fill:#FFFFFF;" points="436.699,189.772 425.124,181.153 428.132,177.114 435.894,182.893 446.558,170.171 
				450.417,173.406 			"/>
		</g>
	</g>
</g>
<g id="Background_simple" style="display:none;">
	<g style="display:inline;">
		<path style="fill:#407BFF;" d="M41.471,265.112c2.127-3.988,4.729-7.911,7.773-11.72c14.086-17.614,37.244-31.675,63.172-36.569
			c21.527-4.062,44.415-3.77,62.423,1.442c22.748,6.581,40.903,19.97,70.546,15.37c16.861-2.604,33.225-11.001,45.531-21.285
			c27.447-22.962,27.305-50.459,50.889-73.854c19.347-19.192,52.587-30.265,78.356-23.491c17.443,4.57,29.129,15.3,37.107,27.192
			c22.136,33.016,31.249,70.392,11.232,112.385c-30.582,64.159-116.353,111.881-201.133,134.326
			c-60.95,16.145-118.771,11.224-161.629-11.928C64.964,354.962,16.568,311.849,41.471,265.112z"/>
		<path style="opacity:0.9;fill:#FFFFFF;" d="M41.471,265.112c2.127-3.988,4.729-7.911,7.773-11.72
			c14.086-17.614,37.244-31.675,63.172-36.569c21.527-4.062,44.415-3.77,62.423,1.442c22.748,6.581,40.903,19.97,70.546,15.37
			c16.861-2.604,33.225-11.001,45.531-21.285c27.447-22.962,27.305-50.459,50.889-73.854c19.347-19.192,52.587-30.265,78.356-23.491
			c17.443,4.57,29.129,15.3,37.107,27.192c22.136,33.016,31.249,70.392,11.232,112.385
			c-30.582,64.159-116.353,111.881-201.133,134.326c-60.95,16.145-118.771,11.224-161.629-11.928
			C64.964,354.962,16.568,311.849,41.471,265.112z"/>
	</g>
</g>
<g id="Shadow_1">
	<g>
		<g>
			<path style="fill:#F5F5F5;" d="M466.322,465.711c0,7.555-93.517,13.679-208.875,13.679s-208.875-6.124-208.875-13.679
				c0-7.555,93.516-13.679,208.875-13.679S466.322,458.156,466.322,465.711z"/>
		</g>
	</g>
</g>
<g id="Document">
	<g>
		<g>
			<path style="fill:#407BFF;" d="M321.522,374.488H108.259c-3.728,0-6.751-3.022-6.751-6.751V73.548
				c0-3.728,3.022-6.751,6.751-6.751h213.263c3.728,0,6.751,3.022,6.751,6.751v294.189
				C328.273,371.465,325.25,374.488,321.522,374.488z"/>
			<path style="opacity:0.5;fill:#FFFFFF;" d="M321.522,374.488H108.259c-3.728,0-6.751-3.022-6.751-6.751V73.548
				c0-3.728,3.022-6.751,6.751-6.751h213.263c3.728,0,6.751,3.022,6.751,6.751v294.189
				C328.273,371.465,325.25,374.488,321.522,374.488z"/>
			<g>
				<polygon style="fill:#EBEBEB;" points="119.257,75.202 109.261,75.202 109.261,366.667 318.931,368.32 324.723,361.636 
					319.648,86.692 				"/>
				<polygon style="fill:#E0E0E0;" points="324.723,361.636 117.409,361.636 117.409,75.202 109.261,75.202 109.261,368.32 
					318.931,368.32 				"/>
				<polygon style="opacity:0.2;" points="109.261,368.32 117.409,361.636 324.723,361.636 318.931,368.32 				"/>
				<path style="fill:#FFFFFF;stroke:#263238;stroke-miterlimit:10;" d="M342.585,352.233h-204.85
					c-19.958-46.071-23.489-163.278-20.326-277.031h203.393C319.142,188.891,323.15,290.978,342.585,352.233z"/>
			</g>
			<polygon style="opacity:0.2;" points="178.479,66.797 178.479,89.063 253.154,89.451 253.037,85.361 217.186,65.702 			"/>
			<path style="fill:#263238;" d="M256.695,85.361h-73.79V69.703c0-4.202,3.406-7.608,7.608-7.608h58.575
				c4.202,0,7.608,3.406,7.608,7.608V85.361z"/>
			<path style="fill:#263238;" d="M206.158,63.922l-2.806-9.014c-0.206-0.663,0.289-1.336,0.984-1.336h33.016
				c0.71,0,1.207,0.701,0.972,1.37l-3.306,9.44c-0.147,0.419-0.545,0.697-0.989,0.69l-26.904-0.426
				C206.68,64.638,206.29,64.347,206.158,63.922z"/>
			<path style="fill:none;stroke:#407BFF;strokeWidth:0.75;strokeLinejoin:round;stroke-miterlimit:10;" d="M126.387,62.44
				c17.364,0,34.728,0,52.092,0"/>
			
				<line style="fill:none;stroke:#407BFF;strokeWidth:0.75;strokeLinejoin:round;stroke-miterlimit:10;" x1="123.439" y1="62.44" x2="115.337" y2="62.44"/>
		</g>
		<g>
			<path style="fill:#407BFF;" d="M194.254,132.88l-0.08-14.804l-7.182,12.05h-3.512l-7.142-11.651v14.404h-7.302v-27.931h6.504
				l9.816,16.12l9.577-16.12h6.504l0.08,27.931H194.254z"/>
			<path style="fill:#407BFF;" d="M205.662,118.914c0-8.379,6.584-14.524,15.522-14.524s15.522,6.145,15.522,14.524
				c0,8.379-6.584,14.524-15.522,14.524S205.662,127.294,205.662,118.914z M228.725,118.914c0-4.828-3.312-7.98-7.542-7.98
				c-4.229,0-7.542,3.152-7.542,7.98c0,4.828,3.312,7.98,7.542,7.98C225.413,126.895,228.725,123.742,228.725,118.914z"/>
			<path style="fill:#407BFF;" d="M240.612,120.431v-15.482h7.9v15.242c0,4.789,1.995,6.704,5.307,6.704
				c3.273,0,5.268-1.915,5.268-6.704v-15.242h7.78v15.482c0,8.339-4.867,13.008-13.127,13.008
				C245.48,133.439,240.612,128.77,240.612,120.431z"/>
		</g>
		<g>
			<g>
				<path style="fill:#263238;" d="M142.285,151.248c20.646,0,41.291,0,61.937,0c20.479,0,40.958,0,61.437,0
					c11.655,0,23.31,0,34.964,0c0.965,0,0.967-1.5,0-1.5c-20.646,0-41.291,0-61.937,0c-20.479,0-40.958,0-61.438,0
					c-11.655,0-23.31,0-34.964,0C141.32,149.748,141.318,151.248,142.285,151.248L142.285,151.248z"/>
			</g>
		</g>
		<g>
			<g>
				<path style="fill:#263238;" d="M142.285,165.322c20.646,0,41.291,0,61.937,0c20.479,0,40.958,0,61.437,0
					c11.655,0,23.31,0,34.964,0c0.965,0,0.967-1.5,0-1.5c-20.646,0-41.291,0-61.937,0c-20.479,0-40.958,0-61.438,0
					c-11.655,0-23.31,0-34.964,0C141.32,163.822,141.318,165.322,142.285,165.322L142.285,165.322z"/>
			</g>
		</g>
		<g>
			<g>
				<path style="fill:#263238;" d="M142.285,179.397c20.646,0,41.291,0,61.937,0c20.479,0,40.958,0,61.437,0
					c11.655,0,23.31,0,34.964,0c0.965,0,0.967-1.5,0-1.5c-20.646,0-41.291,0-61.937,0c-20.479,0-40.958,0-61.438,0
					c-11.655,0-23.31,0-34.964,0C141.32,177.897,141.318,179.397,142.285,179.397L142.285,179.397z"/>
			</g>
		</g>
		<g>
			<g>
				<path style="fill:#263238;" d="M142.285,193.471c20.646,0,41.291,0,61.937,0c20.479,0,40.958,0,61.437,0
					c11.655,0,23.31,0,34.964,0c0.965,0,0.967-1.5,0-1.5c-20.646,0-41.291,0-61.937,0c-20.479,0-40.958,0-61.438,0
					c-11.655,0-23.31,0-34.964,0C141.32,191.971,141.318,193.471,142.285,193.471L142.285,193.471z"/>
			</g>
		</g>
		<g>
			<g>
				<path style="fill:#263238;" d="M142.285,208.616c20.646,0,41.291,0,61.937,0c20.479,0,40.958,0,61.437,0
					c11.655,0,23.31,0,34.964,0c0.965,0,0.967-1.5,0-1.5c-20.646,0-41.291,0-61.937,0c-20.479,0-40.958,0-61.438,0
					c-11.655,0-23.31,0-34.964,0C141.32,207.116,141.318,208.616,142.285,208.616L142.285,208.616z"/>
			</g>
		</g>
		<g>
			<g>
				<path style="fill:#263238;" d="M177.268,231.691c14.681,0,29.363,0,44.045,0c11.06,0,22.119,0,33.179,0
					c9.462,0,18.924,0,28.386,0c0.965,0,0.967-1.5,0-1.5c-14.681,0-29.363,0-44.045,0c-11.06,0-22.119,0-33.179,0
					c-9.462,0-18.924,0-28.386,0C176.303,230.191,176.301,231.691,177.268,231.691L177.268,231.691z"/>
			</g>
		</g>
		<g>
			<g>
				<path style="fill:#263238;" d="M166.378,236.025c-3.407,0-6.814,0-10.222,0c-0.482,0-0.964,0-1.446,0
					c0.25,0.25,0.5,0.5,0.75,0.75c0-3.407,0-6.814,0-10.221c0-0.482,0-0.964,0-1.446c-0.25,0.25-0.5,0.5-0.75,0.75
					c3.407,0,6.814,0,10.222,0c0.482,0,0.964,0,1.446,0c-0.25-0.25-0.5-0.5-0.75-0.75c0,3.407,0,6.814,0,10.221
					c0,0.482,0,0.964,0,1.446c0,0.965,1.5,0.967,1.5,0c0-3.407,0-6.814,0-10.221c0-0.482,0-0.964,0-1.446
					c0-0.406-0.344-0.75-0.75-0.75c-3.407,0-6.814,0-10.222,0c-0.482,0-0.964,0-1.446,0c-0.405,0-0.75,0.344-0.75,0.75
					c0,3.407,0,6.814,0,10.221c0,0.482,0,0.964,0,1.446c0,0.406,0.344,0.75,0.75,0.75c3.407,0,6.814,0,10.222,0
					c0.482,0,0.964,0,1.446,0C167.343,237.525,167.345,236.025,166.378,236.025z"/>
			</g>
		</g>
		<g>
			<g>
				<path style="fill:#263238;" d="M179.367,254.62c14.682,0,29.363,0,44.045,0c11.06,0,22.119,0,33.179,0
					c9.462,0,18.924,0,28.387,0c0.965,0,0.967-1.5,0-1.5c-14.682,0-29.363,0-44.045,0c-11.06,0-22.119,0-33.179,0
					c-9.462,0-18.924,0-28.387,0C178.402,253.12,178.401,254.62,179.367,254.62L179.367,254.62z"/>
			</g>
		</g>
		<g>
			<g>
				<path style="fill:#263238;" d="M168.477,258.954c-3.407,0-6.814,0-10.221,0c-0.482,0-0.964,0-1.446,0
					c0.25,0.25,0.5,0.5,0.75,0.75c0-3.407,0-6.814,0-10.221c0-0.482,0-0.964,0-1.446c-0.25,0.25-0.5,0.5-0.75,0.75
					c3.407,0,6.814,0,10.221,0c0.482,0,0.964,0,1.446,0c-0.25-0.25-0.5-0.5-0.75-0.75c0,3.407,0,6.814,0,10.222
					c0,0.482,0,0.964,0,1.446c0,0.965,1.5,0.967,1.5,0c0-3.407,0-6.814,0-10.221c0-0.482,0-0.964,0-1.446
					c0-0.405-0.344-0.75-0.75-0.75c-3.407,0-6.814,0-10.221,0c-0.482,0-0.964,0-1.446,0c-0.406,0-0.75,0.344-0.75,0.75
					c0,3.407,0,6.814,0,10.222c0,0.482,0,0.964,0,1.446c0,0.406,0.344,0.75,0.75,0.75c3.407,0,6.814,0,10.221,0
					c0.482,0,0.964,0,1.446,0C169.443,260.454,169.444,258.954,168.477,258.954z"/>
			</g>
		</g>
		<g>
			<g>
				<path style="fill:#263238;" d="M182.966,277.259c14.682,0,29.363,0,44.045,0c11.06,0,22.119,0,33.179,0
					c9.462,0,18.924,0,28.387,0c0.965,0,0.967-1.5,0-1.5c-14.682,0-29.363,0-44.045,0c-11.06,0-22.119,0-33.179,0
					c-9.462,0-18.924,0-28.387,0C182.001,275.759,182,277.259,182.966,277.259L182.966,277.259z"/>
			</g>
		</g>
		<g>
			<g>
				<path style="fill:#263238;" d="M172.077,281.593c-3.407,0-6.814,0-10.221,0c-0.482,0-0.964,0-1.446,0
					c0.25,0.25,0.5,0.5,0.75,0.75c0-3.407,0-6.814,0-10.222c0-0.482,0-0.964,0-1.446c-0.25,0.25-0.5,0.5-0.75,0.75
					c3.407,0,6.814,0,10.222,0c0.482,0,0.964,0,1.446,0c-0.25-0.25-0.5-0.5-0.75-0.75c0,3.407,0,6.814,0,10.221
					c0,0.482,0,0.964,0,1.446c0,0.965,1.5,0.967,1.5,0c0-3.407,0-6.814,0-10.222c0-0.482,0-0.964,0-1.446
					c0-0.405-0.344-0.75-0.75-0.75c-3.407,0-6.814,0-10.221,0c-0.482,0-0.964,0-1.446,0c-0.405,0-0.75,0.344-0.75,0.75
					c0,3.407,0,6.814,0,10.221c0,0.482,0,0.964,0,1.446c0,0.405,0.344,0.75,0.75,0.75c3.407,0,6.814,0,10.222,0
					c0.482,0,0.964,0,1.446,0C173.042,283.093,173.043,281.593,172.077,281.593z"/>
			</g>
		</g>
		<g>
			<g>
				<path style="fill:#407BFF;" d="M155.683,332.817c4.757-2.767,8.919-6.438,12.231-10.834c1.431-1.898,2.91-4.326,2.515-6.815
					c-0.326-2.055-1.995-3.453-4.04-3.585c-4.408-0.284-7.406,3.88-7.806,7.86c-0.426,4.24,1.605,8.622,5.168,10.964
					c4.126,2.713,9.602,2.713,14.081,0.912c4.747-1.908,8.384-5.813,10.914-10.17c1.178-2.028,2.63-4.491,2.853-6.874
					c0.182-1.94-1.024-3.689-3.127-3.423c-2.275,0.288-4.208,2.386-5.319,4.255c-1.143,1.922-1.734,4.216-1.607,6.452
					c0.297,5.209,4.594,9.55,9.734,10.181c5.247,0.644,10.29-2.945,11.807-7.924c0.282-0.925-1.165-1.321-1.446-0.399
					c-1.142,3.75-4.648,6.657-8.601,6.889c-3.871,0.228-7.693-2.202-9.267-5.723c-1.608-3.598-0.521-8.09,2.306-10.764
					c0.672-0.635,1.505-1.293,2.438-1.467c1.57-0.292,1.734,1.252,1.499,2.366c-0.416,1.971-1.562,3.947-2.565,5.674
					c-4.049,6.973-11.882,12.809-20.293,10.006c-3.601-1.2-6.173-4.126-6.926-7.84c-0.655-3.232,0.285-7.29,3.456-8.885
					c1.915-0.964,4.79-0.882,5.251,1.697c0.436,2.441-1.543,4.906-2.964,6.678c-3.061,3.82-6.824,7.014-11.051,9.473
					C154.092,332.007,154.846,333.304,155.683,332.817L155.683,332.817z"/>
			</g>
		</g>
		<g>
			<g>
				<path style="fill:#263238;" d="M277.424,326.632c-1.683-6.272-7.107-13.873-3.391-20.424c1.533-2.702,5.03-4.582,7.942-2.764
					c3.829,2.39,1.459,7.068-1.03,9.423c-0.566,0.536,0.028,1.415,0.73,1.254c4.378-1.006,9.324,2.714,9.236,7.308
					c-0.088,4.6-5.101,8.145-9.466,7.007c0.149,0.367,0.299,0.734,0.448,1.102c2.681-3.668,7.105-5.334,10.978-7.403
					c2.895-1.547,6.024-3.408,8.098-6.009c0.746-0.936,1.4-2.083,1.253-3.323c-0.161-1.359-1.018-2.127-2.39-1.859
					c-2.634,0.515-2.629,3.861-2.386,5.936c0.371,3.167,1.256,6.517,3.844,8.597c2.632,2.115,5.907,2.394,8.661,0.437
					c2.198-1.562,4.943-4.307,4.869-7.237c-0.07-2.782-3.682-4.105-5.354-1.721c-2.17,3.096,2.084,7.103,4.451,8.524
					c3.374,2.024,7.895,0.643,9.489-3.008c0.383-0.876-0.91-1.641-1.295-0.757c-1.173,2.687-4.411,4.107-7.077,2.675
					c-1.827-0.982-5.064-3.571-4.554-6c0.237-1.13,1.826-1.675,2.564-0.635c0.665,0.936,0.068,2.303-0.425,3.167
					c-1.08,1.887-3.014,3.867-5.085,4.65c-2.825,1.068-6.015-1.214-7.247-3.651c-0.946-1.871-1.389-4.288-1.443-6.365
					c-0.021-0.807-0.02-1.763,0.398-2.481c0.191-0.328,0.424-0.543,0.794-0.645c0.627-0.173,0.637-0.027,0.707,0.571
					c0.243,2.077-2.844,4.145-4.25,5.148c-5.169,3.687-12.021,5.332-15.896,10.634c-0.288,0.395,0.017,0.989,0.448,1.102
					c5.297,1.381,11.283-2.871,11.365-8.453c0.082-5.595-5.812-9.977-11.135-8.754c0.243,0.418,0.487,0.836,0.73,1.254
					c2.214-2.095,4.218-5.298,3.285-8.465c-0.792-2.687-3.483-4.383-6.234-4.222c-2.832,0.166-5.312,2.143-6.546,4.636
					c-1.277,2.58-1.361,5.564-0.871,8.354c0.783,4.46,3.171,8.447,4.339,12.799C276.227,327.962,277.675,327.567,277.424,326.632
					L277.424,326.632z"/>
			</g>
		</g>
		<g>
			<g>
				<path d="M207.387,61.681c9.555,0,19.111,0,28.666,0c0.965,0,0.967-1.5,0-1.5c-9.555,0-19.111,0-28.666,0
					C206.422,60.181,206.421,61.681,207.387,61.681L207.387,61.681z"/>
			</g>
		</g>
	</g>
</g>
<g id="Shadow_2">
	<path style="opacity:0.2;" d="M282.361,66.352c0,0-2.701,43.421,7.776,62.651c10.477,19.23,38.721,35.569,38.721,35.569V64.638
		L282.361,66.352z"/>
</g>
<g id="Plant">
	<g>
		<g>
			<g>
				<path style="fill:#407BFF;" d="M107.759,320.286c-14.799,17.311-19.121,42.934-10.819,64.142
					c9.224-8.232,15.719-20.781,16.13-31.757C113.481,341.696,110.608,330.893,107.759,320.286z"/>
			</g>
			<g>
				<path style="fill:#407BFF;" d="M105.177,386.428c-5.021,7.694-7.425,17.064-6.727,26.225c8-2.785,15.053-11.822,19.281-19.163
					c4.228-7.34,6.592-15.585,8.743-23.779C117.808,372.762,110.198,378.734,105.177,386.428z"/>
			</g>
			<g>
				<g>
					<path style="fill:#263238;" d="M103.263,350.497c-5.93,21.326-8.963,43.439-8.958,65.575
						c0.001,6.359,0.258,12.716,0.754,19.056c0.037,0.478,0.788,0.482,0.75,0c-1.733-22.161-0.444-44.535,3.871-66.343
						c1.203-6.082,2.645-12.115,4.306-18.089C104.116,350.231,103.393,350.032,103.263,350.497L103.263,350.497z"/>
				</g>
			</g>
			<g>
				<g>
					<path style="fill:#263238;" d="M95.364,419.909c6.075-14.453,14.056-27.989,23.281-40.647c0.285-0.391-0.366-0.765-0.648-0.378
						c-9.267,12.715-17.255,26.309-23.357,40.826C94.454,420.154,95.18,420.349,95.364,419.909L95.364,419.909z"/>
				</g>
			</g>
			<g>
				<path style="fill:#407BFF;" d="M86.682,398.417c4.187,6.415,6.191,14.228,5.61,21.867c-6.671-2.323-12.552-9.858-16.077-15.978
					c-3.526-6.121-5.497-12.995-7.291-19.827C76.15,387.021,82.495,392.001,86.682,398.417z"/>
			</g>
			<g>
				<g>
					<path style="fill:#263238;" d="M95.183,425.328c-4.989-11.859-11.57-22.849-19.138-33.233
						c-0.282-0.386-0.933-0.012-0.648,0.379c7.525,10.327,14.101,21.259,19.062,33.054C94.645,425.965,95.37,425.772,95.183,425.328
						L95.183,425.328z"/>
				</g>
			</g>
			<g>
				<g>
					<path style="fill:#263238;" d="M95.399,429.333c9.414-9.685,19.025-19.175,28.439-28.86c0.337-0.346-0.193-0.877-0.53-0.53
						c-9.414,9.685-19.025,19.175-28.439,28.86C94.532,429.149,95.062,429.68,95.399,429.333L95.399,429.333z"/>
				</g>
			</g>
			<g>
				<path style="fill:#407BFF;" d="M124.143,395.974c-8.168,7.877-15.609,16.506-22.199,25.743l1.494,0
					c6.216-0.292,12.251-3.358,16.151-8.208C123.49,408.66,125.191,402.108,124.143,395.974z"/>
			</g>
			<g>
				<g>
					<g>
						<path style="fill:#263238;" d="M85.42,377.225c3.507,5.735,6.811,11.591,9.906,17.558c0.222,0.429,0.87,0.05,0.648-0.379
							c-3.096-5.967-6.4-11.823-9.906-17.558C85.816,376.435,85.168,376.811,85.42,377.225L85.42,377.225z"/>
					</g>
				</g>
				<g>
					<path style="fill:#407BFF;" d="M77.024,348.233c-1.337,6.016-2.664,13.838-2.677,20.103
						c-0.014,6.264,1.898,12.376,5.457,16.574c3.559,4.198,10.745,6.036,13.642,3.634L77.024,348.233z"/>
				</g>
			</g>
		</g>
		<rect x="76.841" y="432.08" style="fill:#263238;" width="35.678" height="6.612"/>
		<polygon style="fill:#263238;" points="106.741,462.248 84.586,462.248 80.56,437.177 109.921,437.177 		"/>
		<polygon style="opacity:0.2;" points="80.823,438.815 109.714,438.815 109.354,441.653 81.279,441.653 		"/>
	</g>
</g>
<g id="Signature">
	<g>
		<path style="fill:#407BFF;" d="M125.081,233.657H48.633c-5.9,0-10.682-4.783-10.682-10.682v-45.509
			c0-5.9,4.783-10.682,10.682-10.682h76.448c5.9,0,10.682,4.783,10.682,10.682v45.509
			C135.764,228.875,130.981,233.657,125.081,233.657z"/>
		<g>
			<g>
				<path style="fill:#263238;" d="M62.701,212.047c4.886-3.478,8.908-8.09,11.582-13.469c1.86-3.742,4.656-10.741-0.012-13.679
					c-2.156-1.357-4.957-0.672-6.851,0.816c-2.258,1.774-3.204,4.67-3.919,7.34c-1.595,5.954-3.354,12.896,0.065,18.575
					c2.841,4.72,8.524,6.108,13.648,4.877c5.815-1.397,10.074-6.007,13.487-10.648c1.537-2.09,3.382-4.456,3.455-7.175
					c0.06-2.206-1.618-4.109-3.893-3.954c-2.226,0.152-4.206,1.956-5.025,3.952c-0.968,2.361-0.838,5.076,0.08,7.43
					c2.33,5.979,8.78,8.477,14.814,7.136c6.523-1.45,11.046-6.95,13.378-12.931c0.351-0.9-1.099-1.29-1.446-0.399
					c-1.734,4.449-4.765,8.632-9.14,10.774c-4.387,2.148-10.274,2.061-13.889-1.546c-2.875-2.87-4.544-8.749-1.022-11.822
					c1.683-1.468,4.718-1.551,4.643,1.359c-0.059,2.274-1.732,4.331-3.005,6.082c-2.876,3.957-6.387,8.029-11.107,9.771
					c-4.148,1.531-9.35,1.313-12.52-2.104c-3.744-4.037-3.202-10.095-2.07-15.034c0.929-4.052,2.122-11.82,7.693-11.736
					c2.852,0.043,3.771,2.805,3.605,5.218c-0.176,2.557-1.293,5.044-2.444,7.296c-2.553,4.994-6.295,9.323-10.864,12.575
					C61.164,211.306,61.912,212.608,62.701,212.047L62.701,212.047z"/>
			</g>
		</g>
	</g>
</g>
<g id="Lines">
	<g>
		<g>
			<g>
				<path style="fill:#263238;" d="M401.397,71.837c3.964-2.184,7.929-4.367,11.893-6.551c0.846-0.466,0.09-1.762-0.757-1.295
					c-3.964,2.184-7.929,4.367-11.893,6.551C399.794,71.007,400.55,72.303,401.397,71.837L401.397,71.837z"/>
			</g>
		</g>
		<g>
			<g>
				<path style="fill:#263238;" d="M400.984,83.345c6.736,0,13.472,0,20.208,0c0.965,0,0.967-1.5,0-1.5c-6.736,0-13.472,0-20.208,0
					C400.019,81.845,400.017,83.345,400.984,83.345L400.984,83.345z"/>
			</g>
		</g>
		<g>
			<g>
				<path style="fill:#263238;" d="M401.008,95.132c3.207,3.073,6.415,6.146,9.622,9.218c0.697,0.668,1.759-0.391,1.061-1.061
					c-3.207-3.073-6.415-6.145-9.622-9.218C401.372,93.404,400.309,94.463,401.008,95.132L401.008,95.132z"/>
			</g>
		</g>
	</g>
</g>
<g id="Shield">
	<g>
		<path style="fill:#407BFF;" d="M342.57,35.831c-4.926-0.227-27.394,0.962-47.467,8.88v49.766c0,0,0.418,27.178,19.655,43.7
			c19.237,16.521,28.856,22.156,28.856,22.156s7.282-5.929,26.768-22.156c21.309-17.744,19.655-43.7,19.655-43.7V44.711
			C371.143,35.806,347.543,35.632,342.57,35.831z"/>
		<path style="opacity:0.3;fill:#FFFFFF;" d="M343.237,151.249c-4.405-3.062-12.325-8.924-23.672-18.669
			c-16.062-13.794-17.048-37.047-17.085-38.195V49.873c16.179-5.437,33.164-6.69,38.79-6.69c0.381,0,0.704,0.005,0.961,0.017
			l0.316,0.015l0.316-0.013c0.507-0.02,1.232-0.035,2.147-0.035c5.243,0,22.385,0.495,37.649,6.408v44.819
			c-0.031,0.983,1.432,22.239-17.084,38.186C354.465,142.149,347.259,148.027,343.237,151.249z"/>
		<g>
			<polygon style="fill:#407BFF;" points="344.06,108.283 321.329,91.357 327.236,83.425 342.478,94.775 363.421,69.791 
				370.999,76.143 			"/>
		</g>
		<g style="opacity:0.3;">
			<polygon points="344.06,108.283 321.329,91.357 327.236,83.425 342.478,94.775 363.421,69.791 370.999,76.143 			"/>
		</g>
		<path style="opacity:0.3;fill:#FFFFFF;" d="M350.914,45.445c0,0-11.859,64.295-26.133,74.286
			c-14.274,9.991-18.27-13.938-18.841-21.671c-0.571-7.733-0.844-42.56-0.422-44.844C305.941,50.933,334.357,43.447,350.914,45.445z
			"/>
	</g>
</g>
<g id="Characters">
	<g>
		<g>
			<path style="fill:#263238;" d="M247.745,173.513c0.144,0.69,0.618,1.175,1.031,1.031c0.412-0.144,0.701-0.732,0.567-1.422
				c-0.134-0.69-0.629-1.175-1.031-1.031C247.91,172.235,247.569,172.823,247.745,173.513z"/>
			<path style="fill:#FD504E;" d="M248.301,174.699c1.254,1.947,2.77,3.712,4.504,5.246c-1.031,1.391-3.174,1.288-3.174,1.288
				L248.301,174.699z"/>
			<path style="fill:#263238;" d="M244.477,170.184c-0.103-0.004-0.201-0.044-0.278-0.113c-0.158-0.164-0.158-0.424,0-0.587
				c0.884-1.001,2.197-1.512,3.525-1.371c0.222,0.072,0.344,0.31,0.272,0.532c-0.057,0.176-0.221,0.294-0.406,0.292l0,0
				c-1.052-0.098-2.088,0.316-2.783,1.113C244.724,170.144,244.602,170.193,244.477,170.184z"/>
			<path style="fill:#FFBAB3;" d="M229.017,185.727c1.196,6.081,1.907,14.501-2.34,18.552c0,0,1.659,6.184,12.955,6.184
				c12.43,0,5.978-5.421,5.978-5.421c-5.153-1.598-5.153-7.483-3.937-12.203L229.017,185.727z"/>
			<path style="fill:#FFBAB3;" d="M224.369,176.729c2.247,8.389,3.092,13.398,8.317,16.903c7.792,5.256,17.521-0.773,17.789-9.667
				c0.268-7.998-3.453-20.376-12.45-22.066c-6.421-1.246-12.635,2.949-13.882,9.369C223.792,173.08,223.869,174.951,224.369,176.729
				z"/>
			<path style="fill:#263238;" d="M241.798,176.832c1.999-2.937,2.762-7.452,1.361-9.626c1.309,0.546,10.75,1.196,7.05-5.524
				c-2.536-4.605-7.833-8.114-12.996-9.27c-2.066-0.463-3.22,2.305-1.443,3.457l0,0c0,0-5.491-1.05-10.249-0.435
				c-1.785,0.231-2.104,2.686-0.44,3.372l0.001,0c0,0-9.462,4.463-5.339,7.853c-6.648,5.061-2.144,12.069,8.802,22.52
				c1.907,1.721,7.307,1.092,8.503,0.062C236.284,184.686,240.674,178.502,241.798,176.832z"/>
			<path style="fill:#FFBAB3;" d="M238.5,177.224c0.539,2.077,1.896,3.846,3.762,4.906c2.278,1.031,2.556-1.618,2.113-4.123
				c-0.402-2.278-1.031-4.122-2.876-5.009C239.324,171.874,237.747,174.73,238.5,177.224z"/>
			<g style="opacity:0.2;">
				<g>
					<path d="M240.39,175.223c-0.692,1.892,0.225,4.07,2.074,4.877c0.186,0.081,0.403,0.055,0.513-0.134
						c0.093-0.159,0.052-0.432-0.135-0.513c-0.707-0.309-1.283-0.834-1.628-1.527c-0.389-0.779-0.396-1.694-0.101-2.502
						C241.279,174.969,240.554,174.773,240.39,175.223L240.39,175.223z"/>
				</g>
			</g>
		</g>
		<polygon style="fill:#FFBAB3;" points="303.256,272.069 308.386,269.631 312.242,270.194 310.034,271.192 308.881,272.965 		"/>
		<g>
			<path style="fill:#B97964;" d="M305.638,274.857c0,0-0.599,2.696,0.749,3.145c1.348,0.449,1.722,0,1.722,0
				s-0.899,1.947,0.899,2.022c1.797,0.075,2.546,0,2.546,0s-0.899,1.273,1.198,1.797c2.097,0.524,10.035-5.841,10.035-5.841
				l4.269,0.3l-0.974-8.013c0,0-11.682,0.225-12.806,0.899C312.154,269.839,305.638,274.857,305.638,274.857z"/>
		</g>
		<g>
			<path style="fill:#263238;" d="M382.032,210.617c-0.504,0.478-6.926,1.362-11.621,4.467c0,0-0.254-6.702,0-14.733
				c0.254-8.031-2.366-19.667,9.136-21.627c0,0,8.284-6.117,18.476,1.527c10.192,7.644,6.431,30.69,4.687,36.189l0,0
				L382.032,210.617z"/>
			<path style="fill:#263238;" d="M383.055,184.097c0,0-7.19,11.603-7.681,15.296c-2.636,2.034-4.226-2.424-3.849-8.279
				c0.309-4.792,3.059-9.847,7.293-11.511C384.766,177.266,383.055,184.097,383.055,184.097z"/>
			<g>
				<path style="fill:#B97964;" d="M392.845,204.477l-8.477,4.581l-1.74,1.717c0.415,1.276,0.753,2.583,0.84,3.828
					c0.132,1.621-1.372,2.842-2.533,3.896c-1.67,0.833,1.542,8.514,1.542,8.514l10.986-11.37
					C391.413,210.617,391.933,206.556,392.845,204.477z"/>
				<path style="opacity:0.2;" d="M383.495,215.085c2.392-1.159,5.089-3.293,5.016-5.998c-0.038-1.139-0.191-2.229-0.403-2.937
					l-5.144,5.734C383.26,212.902,383.344,213.567,383.495,215.085z"/>
				<path style="fill:#B97964;" d="M396.459,192.632c-1.499,8.443-1.954,12.038-6.723,16.128
					c-7.172,6.153-17.142,3.036-18.178-5.546c-0.932-7.724,1.676-20.233,10.331-23.103
					C390.417,177.285,397.958,184.19,396.459,192.632z"/>
				<path style="fill:#263238;" d="M384.755,195.07c-0.045,0.799-0.537,1.456-1.099,1.467c-0.561,0.011-0.98-0.628-0.935-1.427
					c0.045-0.799,0.538-1.457,1.099-1.468C384.382,193.632,384.8,194.271,384.755,195.07z"/>
				<path style="fill:#263238;" d="M376.674,194.058c0.001,0.776-0.452,1.441-1.01,1.486c-0.558,0.045-1.011-0.548-1.012-1.325
					c0-0.776,0.452-1.441,1.01-1.485C376.221,192.689,376.674,193.282,376.674,194.058z"/>
				<path style="fill:#263238;" d="M387.156,192.434c-0.109,0.002-0.216-0.04-0.293-0.126c-1.195-1.336-2.71-1.05-2.728-1.047
					c-0.224,0.043-0.434-0.102-0.463-0.329c-0.028-0.227,0.133-0.448,0.36-0.494c0.079-0.016,1.981-0.377,3.463,1.282
					c0.148,0.165,0.126,0.431-0.049,0.594C387.363,192.393,387.258,192.433,387.156,192.434z"/>
				<path style="fill:#263238;" d="M374.03,190.053c-0.097-0.037-0.178-0.109-0.22-0.208c-0.088-0.204,0.019-0.444,0.239-0.538
					c2.201-0.934,3.834,0.046,3.903,0.09c0.194,0.12,0.241,0.37,0.104,0.559c-0.136,0.189-0.402,0.245-0.596,0.127
					c-0.063-0.039-1.342-0.782-3.092-0.038C374.254,190.093,374.133,190.093,374.03,190.053z"/>
				<path style="fill:#263238;" d="M375.106,182.321c1.984-3.662,9.497-6.791,17.77-2.765c12.394,4.873,5.369,25.018,1.787,20.795
					c-0.974-1.148-1.788-2.28-2.466-3.365c-4.079-6.516-9.965-11.703-17.064-14.654L375.106,182.321z"/>
				<path style="fill:#B97964;" d="M398.447,199.785c-1.152,1.66-2.878,2.618-4.408,2.867c-2.3,0.374-3.157-3.345-2.197-5.537
					c0.864-1.973,3.191-3.13,5.345-2.502C399.31,195.232,399.765,197.887,398.447,199.785z"/>
				<path style="fill:#A24E3F;" d="M379.133,193.513c0,0-1.601,3.072-3.27,4.931c-0.292,0.325-0.172,0.845,0.223,1.03
					c1.018,0.476,2.277,0.23,2.277,0.23L379.133,193.513z"/>
			</g>
			<path style="fill:#263238;" d="M383.991,193.624l-1.959-0.465C382.032,193.159,383.102,194.622,383.991,193.624z"/>
			<path style="fill:#263238;" d="M375.949,192.757l-1.984-0.348C374.885,193.522,375.682,193.096,375.949,192.757z"/>
			
				<path style="opacity:0.2;fill:none;stroke:#000000;strokeWidth:0.5;strokeLinecap:round;strokeLinejoin:round;stroke-miterlimit:10;" d="
				M395.456,196.657c0.736-0.243,1.463,0.271,1.671,0.88c0.252,0.736-0.226,2.395-2.465,2.815"/>
			<path style="fill:#263238;" d="M377.446,202.45c0.595,0.971,1.29,2.84,1.29,2.84c0.181-0.033,0.361-0.065,0.54-0.107
				c2.439-0.503,3.405-1.542,3.736-2.541c0.179-0.548,0.161-1.089,0.09-1.518c-0.077-0.498-0.245-0.835-0.245-0.835
				c-1.134,1.039-3.372,1.683-4.582,1.977C377.769,202.394,377.446,202.45,377.446,202.45z"/>
			<path style="fill:#FFFFFF;" d="M378.275,202.266l0.402,0.827c2.297-0.479,3.849-1.124,4.425-1.969
				c-0.077-0.498-0.245-0.835-0.245-0.835C381.723,201.329,379.484,201.972,378.275,202.266z"/>
			<path style="fill:#FD504E;" d="M379.276,205.183c2.439-0.503,3.405-1.542,3.736-2.541c-0.825,0.203-1.796,0.54-2.598,1.095
				C379.799,204.158,379.466,204.683,379.276,205.183z"/>
			<path style="fill:#407BFF;" d="M396.74,203.182c0,1.164-0.944,2.108-2.108,2.108c-1.164,0-2.109-0.944-2.109-2.108
				c0-1.165,0.944-2.109,2.109-2.109C395.796,201.073,396.74,202.017,396.74,203.182z"/>
			<g style="opacity:0.2;">
				<g>
					<path style="fill:#FFFFFF;" d="M379.146,181.044c6.751,6.154,14.814,10.717,23.568,13.331c0.464,0.138,0.661-0.585,0.199-0.723
						c-8.629-2.577-16.581-7.071-23.237-13.139C379.32,180.189,378.788,180.718,379.146,181.044L379.146,181.044z"/>
				</g>
			</g>
			<g style="opacity:0.2;">
				<g>
					<path style="fill:#FFFFFF;" d="M380.188,180.206c6.41,5.193,14.411,8.688,22.625,9.602c0.479,0.053,0.475-0.697,0-0.75
						c-7.999-0.891-15.854-4.327-22.095-9.383C380.347,179.374,379.813,179.902,380.188,180.206L380.188,180.206z"/>
				</g>
			</g>
		</g>
		<g>
			<path style="fill:#263238;" d="M415.557,453.161l-0.969,1.349l-1.922-0.828l-1.198,5.925l-8.107,11.324
				c0,0-3.085,0.494-0.655-5.94c0.11-0.293,0.199-0.616,0.257-0.975c0.721-3.849-0.866-11.227-0.866-11.227l4.448-6.213
				c0,0,0.464,0.008,1.253,0.137C409.641,447.02,413.326,447.919,415.557,453.161z"/>
			<path style="opacity:0.2;" d="M415.557,453.161l-0.969,1.349l-1.922-0.828l-1.198,5.925l-8.107,11.324
				c0,0-3.085,0.494-0.655-5.94c0.11-0.293,0.199-0.616,0.257-0.975c0.721-3.849-0.866-11.227-0.866-11.227l4.448-6.213
				c0,0,0.464,0.008,1.253,0.137C409.641,447.02,413.326,447.919,415.557,453.161z"/>
			<path style="fill:#A24E3F;" d="M407.799,446.713c0.01,0.007,0.019,0.014,0.019,0.014c-1.494,0.16-0.183,6.793-0.785,10.513
				c-0.542,3.32-1.973,6.451-4.069,6.776c0.721-3.849-1.881-12.62-1.881-12.62l3.577-4.996
				C404.661,446.4,407.01,446.583,407.799,446.713z"/>
			<path style="fill:#263238;" d="M403.148,470.509l-1.652-0.002l-0.459-2.056l-5.467,2.488h-13.852c0,0-2.203-2.233,4.394-4.012
				c0.3-0.081,0.611-0.198,0.934-0.36c3.518-1.663,8.523-7.279,8.523-7.279h7.6c0,0,0.265,0.384,0.623,1.104
				C404.624,462.079,406.059,465.617,403.148,470.509z"/>
			<path style="fill:#B97964;" d="M403.794,460.393c0,0.012,0,0.023,0,0.023c-1.004-1.128-5.571,3.826-8.915,5.511
				c-2.987,1.5-6.344,2.163-7.831,0.64c3.518-1.663,9.103-9.299,9.103-9.299l6.107,0.186
				C402.258,457.454,403.436,459.672,403.794,460.393z"/>
			<path style="fill:#263238;" d="M386.673,389.76c-3.77-9.613-8.386-19.069-13.933-26.721c22.67-60.158,21.96-87.073,21.96-87.073
				l-27.299-0.02l-2.909,10.061c0,0-6.821,25.046-8.809,39.423l-5.697,31.964v0.09c-0.387,6.638,1.196,13.231,4.592,19.069
				c3.709,6.379,10.271,13.951,13.872,20.825c4.737,9.073,9.208,18.167,13.027,26.304c4.024,8.576,8.304,25.353,10.346,30.56
				c1.934,0.203,7.77-3.043,9.45-5.984C401.273,448.257,396.134,413.888,386.673,389.76z"/>
			<path style="opacity:0.2;" d="M378.118,348.223c3.325-11.053,6.661-18.588,8.353-26.798c0.015-1.916-5.965-8.883-9.208-12.187
				C377.263,309.238,373.363,324.915,378.118,348.223z"/>
			<path style="opacity:0.2;" d="M381.477,423.682c4.024,8.576,8.304,25.353,10.346,30.56c1.934,0.203,7.77-3.043,9.45-5.984
				c0,0-5.138-34.369-14.6-58.497C384.751,399.722,382.6,412.31,381.477,423.682z"/>
			<path style="fill:#263238;" d="M374.294,276.516c2.246,8.189,11.117,71.927,10.743,81.422c0,0,6.903,81.862,5.86,100.102
				l13.171,0.656c0,0,7.876-64.242,3.366-99.52c-0.393-4.599,3.66-34.586,4.295-46.533c1.526-28.742-10.08-36.65-10.08-36.65
				L374.294,276.516z"/>
		</g>
		<path style="opacity:0.2;" d="M386.238,250.579c-1.968,19.373-4.09,38.708,4.752,60.747c0.298,1.347,1.568,2.249,2.938,2.085
			l17.841-1.611l0.098-4.14l-15.363-39.246L386.238,250.579z"/>
		<path style="fill:#FFBAB3;" d="M302.184,271.461l6.181-0.639l0.55,4.383l-3.485,5.984c0,0-4.733-0.242-5.632-3.955
			L302.184,271.461z"/>
		<path style="fill:#FFBAB3;" d="M316.77,278.945l-5.519,2.804c-0.579,0.292-1.239,0.384-1.876,0.262l-3.963-0.777l3.485-5.984
			l2.884-1.774l5.107,3.463c0.533,0.389,0.65,1.137,0.261,1.669C317.048,278.746,316.919,278.861,316.77,278.945z"/>
		<g>
			<polygon style="fill:#FFBAB3;" points="239.919,466.198 248.933,464.378 248.985,443.215 239.982,445.031 			"/>
			<path style="fill:#263238;" d="M250.973,460.294l-3.437-0.031c-0.777-0.007-1.513,0.362-1.998,0.956
				c-2.093,2.563-3.54,1.574-5.591-0.872c-1.364-0.165-1.797,1.332-1.926,1.734l-2.952,8.889c-0.255,0.742,0.163,1.522,0.934,1.742
				c0.137,0.039,0.28,0.059,0.425,0.058c4.173,0.038,6.148,0.055,11.342,0.102l15.885,0.143c4.33,0.039,5.406-4.115,3.639-4.516
				c-7.948-1.763-13.532-4.065-15.915-6.313C250.936,461.793,251.421,461.505,250.973,460.294z"/>
			<path style="fill:#407BFF;" d="M258.321,462.896c0.372-0.245,0.606-0.64,0.629-1.065c0.04-0.228-0.059-0.453-0.256-0.58
				c-1.046-0.737-5.425,1.139-5.917,1.359c-0.054,0.018-0.098,0.058-0.12,0.109c-0.04,0.094,0.007,0.199,0.105,0.234
				c1.046,0.248,2.119,0.39,3.203,0.425C256.777,463.459,257.602,463.29,258.321,462.896z M258.412,461.559
				c0.085,0.053,0.126,0.151,0.102,0.247c-0.031,0.306-0.199,0.589-0.46,0.777c-1.006,0.686-3.349,0.365-4.607,0.13
				C255.263,461.98,257.835,461.157,258.412,461.559z"/>
			<path style="fill:#407BFF;" d="M252.908,462.997c1.312-0.502,4.103-2.5,4.003-3.571c-0.013-0.225-0.17-0.494-0.75-0.574
				c-2.345-0.278-3.528,3.746-3.535,3.918c-0.026,0.069-0.008,0.145,0.048,0.193c0.043,0.013,0.09,0.013,0.135,0.001
				L252.908,462.997z M256.068,459.183c0.436,0.047,0.429,0.197,0.427,0.25c0.095,0.654-1.94,2.316-3.372,3.009
				c0.332-0.939,1.297-3.285,2.789-3.271L256.068,459.183z"/>
			<path style="fill:none;stroke:#407BFF;strokeWidth:0.5;strokeLinecap:round;strokeLinejoin:round;stroke-miterlimit:10;" d="
				M253.25,462.845c-1.19,0.143-2.317,0.808-2.995,1.766"/>
			<path style="fill:none;stroke:#407BFF;strokeWidth:0.5;strokeLinecap:round;strokeLinejoin:round;stroke-miterlimit:10;" d="
				M255.32,464.397c-1.19,0.143-2.317,0.808-2.995,1.767"/>
			<path style="fill:none;stroke:#407BFF;strokeWidth:0.5;strokeLinecap:round;strokeLinejoin:round;stroke-miterlimit:10;" d="
				M257.922,465.711c-1.19,0.143-2.317,0.808-2.995,1.766"/>
		</g>
		<g>
			<polygon style="fill:#FFBAB3;" points="180.37,458.99 189.468,460.33 196.684,440.435 187.597,439.095 			"/>
			<path style="fill:#263238;" d="M192.77,457.178l-3.223-1.193c-0.729-0.27-1.546-0.172-2.204,0.223
				c-2.837,1.703-3.864,0.282-4.966-2.714c-1.227-0.617-2.142,0.645-2.4,0.979l-5.787,7.364c-0.491,0.612-0.362,1.487,0.289,1.956
				c0.116,0.083,0.244,0.15,0.38,0.198c3.914,1.449,5.766,2.134,10.637,3.937l14.898,5.514c4.061,1.503,6.48-2.041,4.954-3.017
				c-6.882-4.35-11.355-8.408-12.837-11.33C192.228,458.576,192.782,458.47,192.77,457.178z"/>
			<path style="fill:#407BFF;" d="M198.803,462.115c0.433-0.104,0.787-0.397,0.953-0.789c0.115-0.201,0.098-0.446-0.044-0.633
				c-0.734-1.048-5.49-0.765-6.027-0.724c-0.057-0.002-0.112,0.021-0.149,0.062c-0.069,0.075-0.061,0.19,0.02,0.256
				c0.9,0.587,1.862,1.085,2.87,1.484C197.16,462.121,197.993,462.242,198.803,462.115z M199.342,460.887
				c0.063,0.078,0.067,0.185,0.012,0.267c-0.133,0.277-0.387,0.487-0.696,0.575c-1.179,0.306-3.275-0.79-4.378-1.438
				C196.236,460.217,198.934,460.314,199.342,460.887z"/>
			<path style="fill:#407BFF;" d="M193.675,460.376c1.405-0.028,4.707-0.963,4.975-2.004c0.064-0.216,0.008-0.522-0.511-0.794
				c-2.112-1.056-4.588,2.33-4.653,2.489c-0.048,0.056-0.056,0.133-0.021,0.198c0.037,0.027,0.081,0.043,0.126,0.047
				L193.675,460.376z M197.941,457.858c0.394,0.191,0.337,0.33,0.317,0.38c-0.132,0.648-2.609,1.522-4.192,1.689
				c0.63-0.771,2.333-2.652,3.732-2.134L197.941,457.858z"/>
			<path style="fill:none;stroke:#407BFF;strokeWidth:0.5;strokeLinecap:round;strokeLinejoin:round;stroke-miterlimit:10;" d="
				M194.049,460.35c-1.168-0.268-2.454-0.025-3.417,0.648"/>
			<path style="fill:none;stroke:#407BFF;strokeWidth:0.5;strokeLinecap:round;strokeLinejoin:round;stroke-miterlimit:10;" d="
				M195.471,462.511c-1.169-0.268-2.454-0.025-3.417,0.648"/>
			<path style="fill:none;stroke:#407BFF;strokeWidth:0.5;strokeLinecap:round;strokeLinejoin:round;stroke-miterlimit:10;" d="
				M197.474,464.628c-1.168-0.268-2.454-0.025-3.416,0.648"/>
		</g>
		<g>
			<path style="fill:#407BFF;" d="M243.659,275.059c0,0-9.78,60.366-15.141,82.979c-5.873,24.767-32.61,97.775-32.61,97.775
				l-17.763-1.763c0,0,19.579-59.15,24.501-93.769c3.79-26.589,13.529-85.203,13.529-85.203L243.659,275.059z"/>
			<path style="opacity:0.3;enable-background:new    ;" d="M237.988,296.565c-10.361,2.037-9.519,36.275-8.275,56.155
				c2.938-14.053,7.619-36.715,10.615-55.871C239.602,296.496,238.778,296.396,237.988,296.565z"/>
			<path style="fill:#407BFF;" d="M260.507,275.059c0,0,3.645,59.054,2.653,83.145c-1.026,25.051-10.243,100.037-10.243,100.037
				l-16.377-1.186c0,0-0.502-72.33-1.19-96.941c-0.744-26.824-4.511-85.055-4.511-85.055H260.507z"/>
		</g>
		<g>
			<path style="fill:#407BFF;" d="M225.384,208.543c-0.979-1.547-0.656-6.238,0.519-7.002c1.88-1.234,9.637-1.097,19.929,1.91
				c-1.391,4.485,0.872,7.012,0.872,7.012L225.384,208.543z"/>
			<path style="fill:#263238;" d="M217.038,206.17c0,0-30.011,34.447-26.656,50.752c3.355,16.305,25.14,25.339,25.14,25.339
				l4.623-8.123c0,0-13.807-11.383-15.479-18.061c-1.672-6.678,12.898-24.38,12.898-24.38L217.038,206.17z"/>
			<path style="opacity:0.2;enable-background:new    ;" d="M216.766,220.303c-3.673,3.624-4.74,11.047-4.339,16.11
				c0.901-1.538,1.861-3.075,2.85-4.574c1.479-2.302,3.056-4.544,4.642-6.797c0.441-0.617,0.891-1.244,1.351-1.87
				c0.088-0.402,0.167-0.803,0.245-1.195L216.766,220.303z"/>
			<path style="fill:#263238;" d="M261.201,214.301c1.668,8.54,3.691,36.606,1.11,70.465l-48.784-0.285
				c-0.273-6.062,5.122-42.748,0.523-71.961c-0.533-3.445,1.917-6.656,5.472-7.172c0.039-0.006,0.078-0.011,0.117-0.016
				c2.385-0.313,5.155-0.607,7.884-0.735c6.171-0.343,12.356-0.343,18.527,0c2.021,0.186,4.043,0.47,5.842,0.774
				C256.607,206.187,260.311,209.741,261.201,214.301z"/>
			<path style="opacity:0.2;enable-background:new    ;" d="M260.973,222.783l-7.698,1.91c-0.588,7.188,4.152,15.327,8.892,21.545
				C262.216,238.403,261.817,230.572,260.973,222.783z"/>
			<path style="fill:#263238;" d="M250.489,215.504c0.511,1.108,12.89,34.689,23.031,46.711
				c9.241,10.955,25.875,17.373,25.875,17.373l3.515-9.961c0,0-16.974-11.448-21.381-16.762
				c-3.457-4.168-13.984-28.878-18.364-39.343c-1.73-4.134-5.36-7.264-9.77-8.055c-0.724-0.13-1.379-0.184-1.944-0.169
				L250.489,215.504z"/>
		</g>
		<g>
			<path style="fill:#407BFF;" d="M321.815,268.471l27.177-7.408c0,0,18.055-35.236,21.935-37.974
				c3.88-2.738,10.92,3.649,9.173,9.954c-1.193,4.308-19.087,37.192-22.998,39.941c-3.912,2.749-33.822,5.737-33.822,5.737
				L321.815,268.471z"/>
			<path style="fill:#407BFF;" d="M400.267,286.115c0.798-9.051,4.446-31.679,9.981-49.1c1.8-5.665-4.806-11.321-4.806-11.321
				s-2.385-2.477-3.146-2.563c-0.834-0.098-1.692-0.183-2.55-0.256c-1.712-0.142-5.463-4.564-6.283-10.562
				c-0.103-0.754-4.952,2.339-10.511,2.757c0.702,2.517-3.307,4.45-4.283,7.291c-0.471,0.049-4.374,0.341-4.833,0.39
				c0,0-8.288,9.698-8.735,16.544c-0.242,3.825-2.09,5.472-1.884,14.621c0.036,6.213,2.311,23.128,2.722,31.863L400.267,286.115z"/>
			<path style="opacity:0.7;fill:#FFFFFF;" d="M400.267,286.115c0.798-9.051,4.446-31.679,9.981-49.1
				c1.8-5.665-4.806-11.321-4.806-11.321s-2.385-2.477-3.146-2.563c-0.834-0.098-1.692-0.183-2.55-0.256
				c-1.712-0.142-5.463-4.564-6.283-10.562c-0.103-0.754-4.952,2.339-10.511,2.757c0.702,2.517-3.307,4.45-4.283,7.291
				c-0.471,0.049-4.374,0.341-4.833,0.39c0,0-8.288,9.698-8.735,16.544c-0.242,3.825-2.09,5.472-1.884,14.621
				c0.036,6.213,2.311,23.128,2.722,31.863L400.267,286.115z"/>
			<path style="fill:#407BFF;" d="M381.028,219.363c0,0-10.981,13.994-13.949,24.511c-1.951,6.916,1.896,26.843,1.448,32.115
				c-0.739,8.688-4.577,19.322-9.553,34.897l-3.291-0.467l9.063-34.474c0,0-4.193-25.977-3.078-32.478
				c1.116-6.501,10.189-20.763,10.189-20.763l4.273-1.356L381.028,219.363z"/>
			<path style="fill:#407BFF;" d="M366.798,255.681c0,0-2.022-5.952-1.653-11.444c0.369-5.492,0.455-9.59,0.455-9.59l6.232-4.605
				l-0.82-5.615c0,0,3.005-1.845,5.797-3.736c1.907-1.291,5.453-3.826,5.945-3.675c0,0-15.718,20.721-15.798,28.961
				C366.879,253.925,366.798,255.681,366.798,255.681z"/>
			<path style="opacity:0.2;" d="M366.798,255.681c0,0-2.022-5.952-1.653-11.444c0.369-5.492,0.455-9.59,0.455-9.59l6.232-4.605
				l-0.82-5.615c0,0,3.005-1.845,5.797-3.736c1.907-1.291,5.453-3.826,5.945-3.675c0,0-15.718,20.721-15.798,28.961
				C366.879,253.925,366.798,255.681,366.798,255.681z"/>
			<path style="opacity:0.2;" d="M363.115,264.693c0,0-1.388-18.035-1.447-21.225c-0.06-3.19-5.205,19.58-3.066,27.922
				L363.115,264.693z"/>
		</g>
		<g>
			<g>
				<polygon style="fill:#407BFF;" points="474.153,350.734 473.155,354.815 422.979,369.932 421.668,366.118 				"/>
				<polygon style="opacity:0.2;enable-background:new    ;" points="474.153,350.734 473.155,354.815 422.979,369.932 
					421.668,366.118 				"/>
				<path style="fill:#263238;" d="M445.356,318.004c0,0-4.369-6.864-10.06-5.553c-5.692,1.312-6.229,10.513-6.229,10.513
					l3.161-1.024c0,0-0.881-6.706,3.164-7.576c4.045-0.869,7.716,4.6,7.716,4.6l1.828-0.916"/>
				<polygon style="fill:#407BFF;" points="474.153,350.734 472.528,346.236 460.775,313.705 412.534,327.156 421.668,366.118 				
					"/>
				<path style="fill:#B97964;" d="M434.723,303.008c0.721,0.257,4.728,5.28,5.52,6.7c0.792,1.421,0.87,2.342,0.23,2.812
					c-0.639,0.47-1.375,0.939-1.569,0.935c-0.194-0.004,0.646,1.466-0.482,2.168c-1.128,0.702-1.706,0.544-1.706,0.544
					s0.245,2.135-1.219,2.685c-1.464,0.55-2.078-0.141-2.322-0.049c-0.244,0.091-1.498-2.404-1.498-2.404l-1.749,2.572
					c0,0-0.758-0.786-1.501-2.254c-0.743-1.468-0.607-5.579-0.607-5.579l0.852-3.66l-1.194-5.304c0,0,6.405-0.732,6.45-0.585
					C433.976,301.733,434.723,303.008,434.723,303.008z"/>
				<path style="opacity:0.2;enable-background:new    ;" d="M460.775,313.705c0,0-3.343,20.584-17.357,21.774
					c-14.014,1.19-30.883-8.323-30.883-8.323"/>
			</g>
			<path style="fill:#407BFF;" d="M405.729,222.438c0,0,5.818,0.365,8.887,6.47c2.093,4.163,17.426,62.015,21.31,72.49l-9.838,5.219
				l-22.091-62.279L405.729,222.438z"/>
			<path style="fill:#407BFF;" d="M404.648,265.281l8.633-35.773c1.263-7.07-13.014-8.912-13.014-8.912l-6.014-0.741
				c0,0-8.232,21.059-8.8,39.612c-0.568,18.542,10.397,50.953,10.397,50.953l24.013-2.51L404.648,265.281z"/>
			<path style="fill:#407BFF;" d="M400.493,219.99c0,0-4.448-3.235-6.397-4.813c0,0-7.951,19.683-7.657,37.074l12.985-18.295
				l-3.268-5.301L400.493,219.99z"/>
			<path style="opacity:0.2;" d="M400.493,219.99c0,0-4.448-3.235-6.397-4.813c0,0-7.951,19.683-7.657,37.074l12.985-18.295
				l-3.268-5.301L400.493,219.99z"/>
			<polygon style="opacity:0.2;" points="407.393,253.907 403.998,244.337 404.83,264.527 			"/>
		</g>
	</g>
</g>
</svg>
